<svg xmlns="http://www.w3.org/2000/svg" xmlns:xlink="http://www.w3.org/1999/xlink" width="42" zoomAndPan="magnify" viewBox="0 0 31.5 31.499999" height="42" preserveAspectRatio="xMidYMid meet" version="1.0"><defs><clipPath id="6b22c76206"><path d="M 2.953125 3.101562 L 26.429688 3.101562 L 26.429688 26.429688 L 2.953125 26.429688 Z M 2.953125 3.101562 " clip-rule="nonzero"/></clipPath><clipPath id="cb4f6fa6f1"><path d="M 14.691406 3.101562 C 8.207031 3.101562 2.953125 8.324219 2.953125 14.765625 C 2.953125 21.207031 8.207031 26.429688 14.691406 26.429688 C 21.175781 26.429688 26.429688 21.207031 26.429688 14.765625 C 26.429688 8.324219 21.175781 3.101562 14.691406 3.101562 Z M 14.691406 3.101562 " clip-rule="nonzero"/></clipPath><clipPath id="dcc7db98c0"><path d="M 2.953125 3.101562 L 26.492188 3.101562 L 26.492188 26.640625 L 2.953125 26.640625 Z M 2.953125 3.101562 " clip-rule="nonzero"/></clipPath><clipPath id="37c17a40f1"><path d="M 14.691406 3.101562 C 8.207031 3.101562 2.953125 8.324219 2.953125 14.761719 C 2.953125 21.203125 8.207031 26.425781 14.691406 26.425781 C 21.171875 26.425781 26.425781 21.203125 26.425781 14.761719 C 26.425781 8.324219 21.171875 3.101562 14.691406 3.101562 Z M 14.691406 3.101562 " clip-rule="nonzero"/></clipPath><clipPath id="54f48bdcba"><path d="M 2.359375 2.433594 L 26.722656 2.433594 L 26.722656 26.796875 L 2.359375 26.796875 Z M 2.359375 2.433594 " clip-rule="nonzero"/></clipPath><clipPath id="88b1b7d90b"><path d="M 14.691406 2.433594 C 7.878906 2.433594 2.359375 7.953125 2.359375 14.765625 C 2.359375 21.574219 7.878906 27.097656 14.691406 27.097656 C 21.5 27.097656 27.023438 21.574219 27.023438 14.765625 C 27.023438 7.953125 21.5 2.433594 14.691406 2.433594 Z M 14.691406 2.433594 " clip-rule="nonzero"/></clipPath><clipPath id="b271bdbf30"><path d="M 6.488281 7.507812 L 22.730469 7.507812 L 22.730469 22.273438 L 6.488281 22.273438 Z M 6.488281 7.507812 " clip-rule="nonzero"/></clipPath></defs><g clip-path="url(#6b22c76206)"><g clip-path="url(#cb4f6fa6f1)"><path fill="#ffffff" d="M 2.953125 3.101562 L 26.429688 3.101562 L 26.429688 26.429688 L 2.953125 26.429688 Z M 2.953125 3.101562 " fill-opacity="1" fill-rule="nonzero"/></g></g><g clip-path="url(#dcc7db98c0)"><g clip-path="url(#37c17a40f1)"><path stroke-linecap="butt" transform="matrix(0.738281, 0, 0, 0.738281, 2.954294, 3.100781)" fill="none" stroke-linejoin="miter" d="M 15.897889 0.00105883 C 7.114819 0.00105883 -0.00158394 7.075134 -0.00158394 15.794712 C -0.00158394 24.519581 7.114819 31.593656 15.897889 31.593656 C 24.675668 31.593656 31.792071 24.519581 31.792071 15.794712 C 31.792071 7.075134 24.675668 0.00105883 15.897889 0.00105883 Z M 15.897889 0.00105883 " stroke="#ffffff" stroke-width="2" stroke-opacity="1" stroke-miterlimit="4"/></g></g><g clip-path="url(#54f48bdcba)"><g clip-path="url(#88b1b7d90b)"><path stroke-linecap="butt" transform="matrix(0.738281, 0, 0, 0.738281, 2.358921, 2.432748)" fill="none" stroke-linejoin="miter" d="M 16.70432 0.00114518 C 7.476806 0.00114518 0.000615393 7.477336 0.000615393 16.70485 C 0.000615393 25.927073 7.476806 33.408555 16.70432 33.408555 C 25.926543 33.408555 33.408025 25.927073 33.408025 16.70485 C 33.408025 7.477336 25.926543 0.00114518 16.70432 0.00114518 Z M 16.70432 0.00114518 " stroke="#ffffff" stroke-width="4" stroke-opacity="1" stroke-miterlimit="4"/></g></g><g clip-path="url(#b271bdbf30)"><path fill="#000000" d="M 10.21875 7.507812 C 9.339844 7.507812 8.625 8.242188 8.625 9.148438 L 8.625 12.976562 C 8.625 13.882812 9.339844 14.617188 10.21875 14.617188 L 11.105469 14.617188 L 11.195312 15.164062 L 7.558594 15.164062 C 6.894531 15.710938 6.496094 17.488281 6.496094 18.71875 C 6.496094 19.949219 6.894531 21.726562 7.558594 22.273438 L 19.800781 22.273438 L 19.800781 21.179688 L 20.332031 21.179688 C 21.65625 21.179688 22.726562 20.078125 22.726562 18.71875 C 22.726562 17.359375 21.65625 16.257812 20.332031 16.257812 L 19.800781 16.257812 L 19.800781 15.164062 L 17.757812 15.164062 L 17.847656 14.617188 L 18.734375 14.617188 C 19.617188 14.617188 20.332031 13.882812 20.332031 12.976562 L 20.332031 9.148438 C 20.332031 8.242188 19.617188 7.507812 18.734375 7.507812 Z M 10.21875 8.601562 L 18.734375 8.601562 C 19.027344 8.601562 19.265625 8.847656 19.265625 9.148438 L 19.265625 12.976562 C 19.265625 13.277344 19.027344 13.523438 18.734375 13.523438 L 10.21875 13.523438 C 9.925781 13.523438 9.6875 13.277344 9.6875 12.976562 L 9.6875 9.148438 C 9.6875 8.847656 9.925781 8.601562 10.21875 8.601562 Z M 12.261719 14.617188 L 16.695312 14.617188 L 16.785156 15.164062 L 12.171875 15.164062 Z M 9.6875 16.804688 L 10.753906 16.804688 L 10.753906 18.171875 L 12.082031 18.171875 L 12.082031 19.265625 L 10.753906 19.265625 L 10.753906 20.632812 L 9.6875 20.632812 L 9.6875 19.265625 L 8.359375 19.265625 L 8.359375 18.171875 L 9.6875 18.171875 Z M 20.332031 17.242188 C 21.125 17.242188 21.769531 17.902344 21.769531 18.71875 C 21.769531 19.53125 21.125 20.195312 20.332031 20.195312 C 19.539062 20.195312 18.894531 19.53125 18.894531 18.71875 C 18.894531 17.902344 19.539062 17.242188 20.332031 17.242188 Z M 20.332031 17.242188 " fill-opacity="1" fill-rule="nonzero"/></g></svg>